<svg xmlns="http://www.w3.org/2000/svg" viewBox="0 0 64 64">
  <defs>
    <linearGradient id="bg" x1="0%" y1="0%" x2="100%" y2="100%">
      <stop offset="0%" stop-color="#0D1730" />
      <stop offset="100%" stop-color="#050D1A" />
    </linearGradient>
    <linearGradient id="accent" x1="0%" y1="0%" x2="100%" y2="100%">
      <stop offset="0%" stop-color="#00E5CC" />
      <stop offset="100%" stop-color="#8B5CF6" />
    </linearGradient>
  </defs>
  <rect width="64" height="64" rx="18" fill="url(#bg)" />
  <rect x="4" y="4" width="56" height="56" rx="14" fill="none" stroke="url(#accent)" stroke-width="2.5" opacity="0.9" />
  <path d="M18 17h10.5c6.4 0 10.5 3.5 10.5 9.2 0 5.8-4.1 9.3-10.5 9.3H24V47h-6V17zm9.8 13.8c3.3 0 5.1-1.6 5.1-4.6 0-2.9-1.8-4.5-5.1-4.5H24v9.1h3.8z" fill="#ffffff"/>
  <path d="M43 17h6v12.4L55.8 17H63L54 31.2 63.3 47h-7l-7.3-11.9V47h-6V17z" fill="url(#accent)"/>
</svg>